<?xml version="1.0" encoding="utf-8"?>
<!-- Generator: Adobe Illustrator 21.0.0, SVG Export Plug-In . SVG Version: 6.00 Build 0)  -->
<svg version="1.1" id="icon-0" xmlns:svgjs="http://svgjs.dev/svgjs"
	 xmlns="http://www.w3.org/2000/svg" xmlns:xlink="http://www.w3.org/1999/xlink" x="0px" y="0px" viewBox="0 0 760.5 577.5"
	 style="enable-background:new 0 0 760.5 577.5;" xml:space="preserve">
<style type="text/css">
	.st0{display:none;fill:none;}
	.st1{stroke:#FFFFFF;stroke-width:5;stroke-miterlimit:10;}
	.st2{fill:#FFFFFF;stroke:#000000;stroke-miterlimit:10;}
	.st3{display:none;}
	.st4{display:inline;fill:#3ABD11;}
	.st5{fill:#392812;}
	.st6{fill:none;stroke:#000000;stroke-width:4;stroke-miterlimit:10;}
	.st7{fill:#FFFFFF;}
	.st8{fill:#3ABD11;}
	.st9{fill:none;stroke:#3ABD11;stroke-width:4;stroke-miterlimit:10;}
	.st10{font-family:'Ambit-Black';}
	.st11{font-size:59.1645px;}
	.st12{fill:#3ABD11;stroke:#3ABD11;stroke-width:5;stroke-miterlimit:10;}
</style>
<rect x="10.2" y="253.4" class="st0" width="700.2" height="473.6"/>
<g class="st3">
	<path id="r_x24_-0" class="st4" d="M-48.4,340h254.3c1.4,0,2.6,3.1,2.6,7v0.5c0,3.9-1.2,7-2.6,7H-48.4c-1.4,0-2.6-3.1-2.6-7V347
		C-51,343.1-49.8,340-48.4,340z"/>
</g>
<g class="st3">
	<path id="r_x24_-0_2_" class="st4" d="M589.1,340h226c1.3,0,2.3,3.1,2.3,7v0.5c0,3.9-1,7-2.3,7h-226c-1.3,0-2.3-3.1-2.3-7V347
		C586.8,343.1,587.9,340,589.1,340z"/>
</g>
<g>
	<g>
		<path class="st8" d="M436.8,399.4c-2.3-7-9.3-11.7-16.4-12.2c0.5-4.9-1.3-10.5-4.6-14.5c-3.3-4.1-8.5-6.3-13.7-6.5
			c0.1-5.2-1.9-11-6.1-14.6c-3.9-3.4-8.7-5.4-13.8-4.9c-3.9,0.3-8.2,1.8-11.2,4.4c-2.8-4.7-8.2-8.2-13.8-8.6
			c-7.2-1.1-14.5,2.5-18.2,8.8c-8.3,13.4-16.4,26.5-24.8,39.9l-4.8,10.8c-0.3,6.1,1.2,12,3.5,17.4c3.5,7.4,8.5,14.2,14.5,19.7
			c8.1,7.6,16.9,13.6,26.5,18.6c10.6,5.7,22.7,9.4,34.8,8.8c6.6-0.4,13.3-2.3,18.5-6.4l6.7-10.4c7.2-11.1,14.3-22.2,21.2-33.6
			C438.3,411.1,439.2,404.9,436.8,399.4z M424.4,409.8c-8.3,13.4-16.4,26.5-24.8,39.9c-0.7,1.6-2.1,2.1-3.6,2.7
			c-4.3,1.6-9.2,1.7-13.8,1.4c-8-0.6-16-3.4-23.3-7.2c-6.6-3.3-13.2-7.2-18.8-11.8c-6.2-4.6-11.9-10.4-15.7-17.4
			c-2.1-3.6-3.9-7.6-4.2-12.1c-0.2-1.2-0.1-2.7,0.7-3.7l27.2-46c2.4-2.5,6.5-3.1,9.3-1.1c3.3,1.9,4.3,6.4,2.4,9.7
			c-6.8,11.4-14.2,22.8-21.3,34.5c-1.5,2.1-0.7,5.3,1.1,7.1c1.8,1.9,4.9,2,6.8,0.8c1.4-0.5,2.1-2.1,3.1-3.5
			c8.3-13.4,16.7-26.8,25-40.2c0.7-1.6,1.7-3,2.8-3.8c2.5-1.9,6.4-2.2,8.9,0.2c2.5,2.4,3.1,6.5,1.4,9.5c-8.8,14.7-17.9,29.1-27,43.6
			c-1.3,1.7-1.5,4.2-0.3,6.1c1.2,2,3.9,3.4,6.5,2.7c1.4-0.5,2.5-1.3,3.6-2.7c8.2-12.5,16-25.2,23.9-37.9c2.5-3.4,7.3-4.1,10.4-1.9
			c2.7,2,4,6.7,1.8,9.8c-8.2,12.5-16,25.2-23.9,37.9c-1.7,3-0.2,6.7,2.4,8.2c2.4,1.8,6.2,0.9,7.6-1.7c6.4-10.1,12.7-20.8,19.1-30.8
			c1.8-2.4,4.7-3.4,7.5-2.9c2.5,0.2,4.5,1.8,5.5,4.1C425.8,405,425.9,407.7,424.4,409.8z"/>
		<path class="st8" d="M386.2,469.1c-10.8,0-22.3-3.1-33.5-9.2c-10.2-5.3-19.1-11.5-27-18.9c-6.1-5.6-11.3-12.7-15.1-20.5l0-0.1
			c-2.8-6.5-4-12.6-3.7-18.5l0-0.5l5.1-11.5c4.2-6.7,8.3-13.3,12.4-19.9c4.1-6.6,8.2-13.2,12.4-20c4.1-7.1,12.3-11.1,20.6-10
			c5.3,0.4,10.6,3.3,14.1,7.6c3-1.9,6.7-3.1,10.5-3.4c5.4-0.5,11,1.5,15.6,5.6c3.9,3.4,6.5,8.7,6.9,14.2c5.2,0.7,10.1,3.3,13.2,7.2
			c3.2,3.9,5.1,9,5.2,13.9c7.5,1.4,13.9,6.6,16.2,13.5c2.5,5.9,1.8,13-2,18.9c-6.8,11.3-14.1,22.6-21.1,33.5l-6.9,10.8l-0.3,0.3
			c-6.5,5.2-14.4,6.6-19.9,7C388,469.1,387.1,469.1,386.2,469.1z M315.2,418.4c3.5,7.2,8.3,13.8,13.9,18.9
			c7.6,7.1,16.1,13.1,26,18.2c11.3,6.1,22.9,9,33.5,8.5c4.7-0.3,11.3-1.5,16.8-5.6l6.4-10.1c7.1-11,14.3-22.2,21.1-33.5
			c2.9-4.6,3.5-10,1.6-14.4l-0.1-0.2c-1.8-5.6-7.8-10-14.2-10.4l-2.6-0.2l0.3-2.6c0.4-4.3-1.1-9.2-4-12.7c-2.8-3.4-7.2-5.4-11.9-5.6
			l-2.5-0.1l0.1-2.5c0.1-4.9-1.9-9.7-5.3-12.6c-3.6-3.2-7.8-4.7-12-4.3c-3.6,0.3-7.4,1.7-9.8,3.8l-2.3,2l-1.5-2.6
			c-2.4-4.1-7.2-7.1-11.8-7.4l-0.2,0c-6.1-0.9-12.5,2.2-15.6,7.6c-4.2,6.8-8.3,13.4-12.4,20c-4.1,6.6-8.2,13.1-12.3,19.8l-4.5,10.2
			C311.7,407.6,312.8,412.8,315.2,418.4z M385.6,456.4c-1.2,0-2.4,0-3.5-0.1c-7.9-0.6-16-3.1-24.3-7.5c-7.9-3.9-14.2-7.9-19.2-12.1
			c-7.2-5.4-12.7-11.5-16.3-18.2c-1.9-3.3-4.1-7.8-4.5-13c-0.1-1.1-0.3-3.5,1-5.4l27.3-46.2l0.2-0.2c3.3-3.4,8.8-4,12.5-1.4
			c2.1,1.3,3.6,3.4,4.2,5.8c0.6,2.5,0.2,5-1.1,7.2c-3.6,5.9-7.4,12-11,17.9c-3.4,5.5-6.9,11.1-10.3,16.7l-0.1,0.2
			c-0.7,0.9-0.2,2.8,0.9,3.9c1,1,2.7,1,3.7,0.4l0.2-0.1l0.2-0.1c0.3-0.1,0.8-0.9,1.1-1.4c0.2-0.4,0.5-0.8,0.8-1.1l24.9-40
			c0.8-2,2.1-3.6,3.5-4.6c3.7-2.8,8.9-2.6,12.1,0.4c3.3,3.2,4.1,8.6,1.9,12.6c-8.8,14.8-18.1,29.4-27,43.7l-0.1,0.2
			c-0.7,1-0.8,2.3-0.2,3.3c0.7,1.1,2.2,1.9,3.6,1.6c1-0.4,1.6-0.9,2.2-1.7c8.1-12.4,16.1-25.3,23.7-37.7l0.2-0.3
			c1.6-2.2,3.9-3.6,6.6-4c2.6-0.4,5.3,0.2,7.3,1.7c3.7,2.7,5.4,8.9,2.3,13.2c-8.1,12.4-16.1,25.3-23.7,37.7
			c-0.5,0.9-0.4,1.9-0.2,2.5c0.3,1,0.9,1.8,1.7,2.2l0.3,0.2c0.5,0.4,1.3,0.5,2.1,0.4c0.8-0.2,1.5-0.7,1.8-1.3l0.1-0.2
			c3.2-5,6.4-10.3,9.5-15.4c3.1-5.1,6.4-10.4,9.6-15.5l0.1-0.1c2.3-3.1,6-4.6,9.8-3.9c3.3,0.4,6,2.4,7.4,5.4
			c1.7,2.9,1.6,6.6-0.4,9.3c-4.2,6.7-8.2,13.3-12.3,19.9c-4.1,6.6-8.2,13.1-12.3,19.8c-1.1,2.5-3.3,3.3-4.9,3.8
			C393.2,456.1,389.2,456.4,385.6,456.4z M350.1,357l-27.2,46c-0.2,0.3-0.3,1-0.2,1.9l0,0.2c0.4,4.3,2.3,8.2,3.9,11.1
			c3.3,6.1,8.3,11.7,15,16.7l0.1,0.1c4.7,3.9,10.7,7.7,18.3,11.5c7.6,4,15.4,6.4,22.4,6.9c3.7,0.2,8.5,0.2,12.7-1.3
			c1.4-0.5,1.9-0.7,2.1-1.3l0.2-0.4c4.2-6.7,8.3-13.3,12.4-19.9c4.1-6.6,8.2-13.2,12.4-20l0.1-0.2c0.9-1.3,0.7-2.9,0.1-3.9l-0.2-0.4
			c-0.6-1.4-1.9-2.4-3.4-2.5l-0.2,0c-1.9-0.3-3.8,0.4-5,1.9c-3.2,5-6.4,10.2-9.5,15.3c-3.1,5.1-6.3,10.3-9.5,15.4
			c-1,1.9-2.9,3.2-5.1,3.7c-2.2,0.5-4.3,0.1-6-1.1c-1.9-1.1-3.3-2.9-4-5.1c-0.6-2.2-0.4-4.4,0.7-6.4l0.1-0.2
			c7.7-12.5,15.7-25.4,23.8-37.9l0.1-0.1c1.4-1.9,0.5-5-1.2-6.3c-0.9-0.7-2.2-1-3.5-0.8c-1.3,0.2-2.5,0.9-3.3,2
			c-7.7,12.5-15.7,25.4-23.8,37.9l-0.1,0.1c-1.3,1.7-2.8,2.8-4.7,3.5l-0.2,0.1c-3.9,1-7.6-1.1-9.3-3.8c-1.7-2.7-1.5-6.2,0.4-8.8
			c8.9-14.2,18.2-28.8,26.9-43.4c1.1-1.9,0.7-4.9-1-6.4c-1.6-1.5-4.1-1.2-5.6,0l-0.1,0.1c-0.7,0.5-1.4,1.5-1.9,2.7l-0.2,0.4
			l-25.1,40.4c-0.2,0.3-0.4,0.6-0.6,0.9c-0.8,1.2-1.7,2.6-3.4,3.3c-3.1,1.8-7.3,1.2-9.7-1.3c-2.5-2.6-3.6-7.1-1.4-10.3
			c3.4-5.6,6.9-11.2,10.3-16.7c3.6-5.8,7.4-11.9,11-17.7c1.3-2.2,0.6-5-1.5-6.2l-0.2-0.2C354.3,355.2,351.7,355.5,350.1,357z"/>
	</g>
	<g>
		<path class="st9" d="M336.9,435.1C336.9,435.1,336.9,435.1,336.9,435.1l1.3,1.4l0.7,0.8l0.1-0.1l0.2-0.2
			C338.5,436.4,337.7,435.7,336.9,435.1z"/>
		<path class="st9" d="M339,437.2l5.7,4.7l0.6-0.7c-2.1-1.3-4.1-2.7-6-4.2L339,437.2z"/>
		<polygon class="st9" points="197.2,379.9 337.3,443.2 205.6,361.2 		"/>
		<polygon class="st9" points="290.1,242.5 289.4,243.1 290.2,242.7 		"/>
		<path class="st9" d="M320.1,416.4c-2.2-3.9-4.1-8.2-4.5-13c-0.2-1.2-0.1-2.7,0.6-3.8l-1-1.6l-83.1-104.5l-13.8,12.7l3.9,4.3
			l98.5,107.1C320.6,417.2,320.3,416.8,320.1,416.4z"/>
		<polygon class="st9" points="363.6,351.6 363.4,351.3 364.4,350.7 374.4,339.4 452.5,226.5 436.2,216.9 433.3,221.8 357.2,350.7 
					"/>
		<polygon class="st9" points="364.4,350.7 396.6,330.8 494.5,250.8 470.5,229.8 467.7,233 374.4,339.4 		"/>
		<polygon class="st9" points="342.7,354.8 360.7,217.4 347.9,216.5 347.6,221.1 338.2,362.3 		"/>
		<path class="st9" d="M345.4,350.2c0.5-0.6,1.2-1,1.9-1.4l35.3-131.2l-21.6-2.8l-0.3,2.6l-18,137.4L345.4,350.2z"/>
		<path class="st9" d="M355.3,349c0.1,0.1,0.2,0.2,0.4,0.2l55.2-131.8l-26.3-7.1l-1.9,7.2l-35.3,131.2
			C349.8,347.4,353,347.3,355.3,349z"/>
		<polygon class="st9" points="512,259.6 500.6,245.8 494.5,250.8 396.6,330.8 		"/>
		<path class="st9" d="M357.2,350.7l76.1-128.9l-20.6-8.6l-1.8,4.4l-55.2,131.8C356.3,349.7,356.8,350.1,357.2,350.7z"/>
		<path class="st9" d="M393.4,378.9c0.4-0.6,0.8-1.3,1.2-1.9c1.4-1.8,3.3-2.9,5.4-3.3l-1.2-12l169.6-16.3l-5.2-24.4l-6.7,1.4
			L389,358.3L393.4,378.9z"/>
		<path class="st9" d="M393.4,378.9l-4.4-20.6l167.5-35.8l-6.1-20.8l-3.3,1l-2.4,0.7l-165.4,48l0.4,1.3c2.2-0.4,4.5,0,6.3,1.7
			c2.7,2.5,3.3,7,1.5,10.2"/>
		<path class="st9" d="M373.8,357.4c0.7-1.4,1.7-2.7,2.7-3.4c0.9-0.7,2-1.2,3.2-1.4l-0.4-1.3l165.4-48l-3.5-7.9l-8.9-19.9l-5,2.2
			l-157.7,70.3L373.8,357.4z"/>
		<path class="st9" d="M364.4,350.7l-0.9,0.6l0.2,0.3l2.6,4.1l4.4,7.1c1-1.6,2-3.2,3-4.8c0.1-0.2,0.2-0.4,0.3-0.6l-4.2-9.3
			l157.7-70.3l-12.3-20l-3,1.9l-115.4,71.2L364.4,350.7z"/>
		<polygon class="st9" points="313.2,232.1 310.8,233.5 313.3,232.8 		"/>
		<polygon class="st9" points="323.9,386.6 270.4,256.8 250.4,268.3 251.8,270.7 321.2,391 		"/>
		<path class="st9" d="M336.9,435.1c-6.2-4.6-12-10.5-16.1-17.5l-98.5-107.1l-14.9,18l6.6,5.4l124.2,102.6L336.9,435.1z"/>
		<path class="st9" d="M316.2,399.6c0-0.1,0.1-0.1,0.1-0.2l5-8.4l-69.4-120.3l-11.5,7.1l1.7,2.8l73.1,117.4L316.2,399.6z"/>
		<polygon class="st9" points="242.1,280.6 229.7,290.5 232.1,293.5 315.2,398.1 		"/>
		<path class="st9" d="M345.3,441.2l-0.6,0.7l-5.7-4.7l-0.1,0.1l-0.7-0.8L214,333.8l-14.6,23.4l6.3,3.9l131.7,82l13.2,8.2l1.1-1.8
			l2.2-3.6C351,444.6,348.1,442.9,345.3,441.2z"/>
		<polygon class="st9" points="331,225.9 327.3,227.5 331.1,227 		"/>
		<polygon class="st9" points="329.2,377.5 293.4,241.4 290.2,242.7 289.4,243.1 268.3,251.7 270.4,256.8 323.9,386.6 		"/>
		<polygon class="st9" points="330.5,375.3 337.7,363.2 331.1,227 327.3,227.5 312.9,229.2 313.2,232.1 313.3,232.8 		"/>
		<polygon class="st9" points="337.7,363.2 338.2,362.3 347.6,221.1 330.8,221.9 331,225.9 331.1,227 		"/>
		<path class="st9" d="M400,373.7c2-0.3,4.1,0.1,5.7,1.3c2.9,2.2,4.3,7.2,1.9,10.5c-1.9,2.9-3.8,5.8-5.6,8.7l2,20.8
			c3.1-5.1,6.2-10.2,9.4-15.1c1.9-2.6,5-3.7,8-3.1c2.6,0.3,4.8,1.9,5.9,4.3c1.3,2.1,1.4,5-0.2,7.2c-6.3,10.1-12.4,20-18.6,30
			l175.2-16.8l-7.4-76.8l-7.7,0.7l-169.6,16.3L400,373.7z"/>
		<polygon class="st9" points="330.5,375.3 313.3,232.8 310.8,233.5 292.6,238.3 293.4,241.4 329.2,377.5 		"/>
		<polygon class="st9" points="467.7,233 454.4,223.8 452.5,226.5 374.4,339.4 		"/>
		<path class="st9" d="M403.9,415l-2-20.8"/>
	</g>
	<path class="st8" d="M251,271.7l-1.4-2.4l20-11.5l-2.1-5.1l21.1-8.7l0.7-0.6l0.2,0.2l3.2-1.3l-0.8-3.1l18.2-4.8l2.4-1.4l-0.3-2.9
		l14.4-1.7l3.8-1.5l-0.2-4l16.8-0.8l0.3-4.5l12.8,0.8l0.3-2.6l21.6,2.8l1.9-7.2l26.3,7.1l1.7-4c-0.8-0.8-1.5-1.6-2.2-2.4
		c1.2,0.5,2.5,0.7,3.9,0.7c6.3,0,11.5-5.1,11.5-11.5c0-6.3-5.1-11.5-11.5-11.5c-3.1,0-5.9,1.2-7.9,3.2c2.4-9.7,11.2-16.9,21.6-16.9
		c12.3,0,22.3,10,22.3,22.3c0,8.9-5.2,16.6-12.8,20.2l15,8.9l1.9-2.7l13.3,9.2l2.8-3.2l23.9,21l6.2-5l10.9,13.3
		c1.3-7.5,2-15.3,2-23.2c0-75.6-61.3-136.9-136.9-136.9s-136.9,61.3-136.9,136.9c0,13.5,2,26.6,5.6,38.9L251,271.7z M325.8,176.2
		c12.3,0,22.3,10,22.3,22.3c0,12.3-10,22.3-22.3,22.3c-6.9,0-13-3.1-17.1-8c0.4,0.1,0.9,0.1,1.3,0.1c6.3,0,11.5-5.1,11.5-11.5
		c0-6.3-5.1-11.5-11.5-11.5c-1.9,0-3.6,0.5-5.2,1.3C307.8,182.4,316.1,176.2,325.8,176.2z"/>
</g>
<circle class="st8" cx="436.1" cy="397.6" r="15.8"/>
<circle class="st8" cx="543.6" cy="386.6" r="15.8"/>
<text transform="matrix(0.9958 -9.106800e-02 9.106800e-02 0.9958 472.8916 417.9963)" class="st8 st10 st11">$</text>
</svg>
